<mxfile host="app.diagrams.net" agent="Mozilla/5.0 (Windows NT 10.0; Win64; x64) AppleWebKit/537.36 (KHTML, like Gecko) Chrome/136.0.0.0 Safari/537.36" version="26.2.14">
  <diagram name="Page-1" id="cP5RKnjC5FtJN-tmcom_">
    <mxGraphModel dx="872" dy="534" grid="1" gridSize="10" guides="1" tooltips="1" connect="1" arrows="1" fold="1" page="1" pageScale="1" pageWidth="850" pageHeight="1100" math="0" shadow="0">
      <root>
        <mxCell id="0" />
        <mxCell id="1" parent="0" />
        <mxCell id="eoJndW0XayTcd-Umclps-1" value="Passenger" style="rounded=0;whiteSpace=wrap;html=1;" parent="1" vertex="1">
          <mxGeometry x="310" y="270" width="120" height="60" as="geometry" />
        </mxCell>
        <mxCell id="eoJndW0XayTcd-Umclps-2" value="" style="endArrow=classic;html=1;rounded=0;exitX=1;exitY=0.5;exitDx=0;exitDy=0;" parent="1" source="eoJndW0XayTcd-Umclps-1" edge="1">
          <mxGeometry width="50" height="50" relative="1" as="geometry">
            <mxPoint x="730" y="360" as="sourcePoint" />
            <mxPoint x="650" y="300" as="targetPoint" />
          </mxGeometry>
        </mxCell>
        <mxCell id="eoJndW0XayTcd-Umclps-3" value="Select date, to/fro cities, travel class" style="text;html=1;align=center;verticalAlign=middle;whiteSpace=wrap;rounded=0;" parent="1" vertex="1">
          <mxGeometry x="440" y="300" width="200" height="30" as="geometry" />
        </mxCell>
        <mxCell id="eoJndW0XayTcd-Umclps-4" value="Search and Display flights" style="ellipse;whiteSpace=wrap;html=1;aspect=fixed;" parent="1" vertex="1">
          <mxGeometry x="650" y="260" width="80" height="80" as="geometry" />
        </mxCell>
        <mxCell id="eoJndW0XayTcd-Umclps-5" value="" style="endArrow=classic;html=1;rounded=0;exitX=1;exitY=0.5;exitDx=0;exitDy=0;" parent="1" source="eoJndW0XayTcd-Umclps-4" edge="1">
          <mxGeometry width="50" height="50" relative="1" as="geometry">
            <mxPoint x="730" y="360" as="sourcePoint" />
            <mxPoint x="830" y="300" as="targetPoint" />
          </mxGeometry>
        </mxCell>
        <mxCell id="eoJndW0XayTcd-Umclps-6" value="Select flight and seat" style="text;html=1;align=center;verticalAlign=middle;whiteSpace=wrap;rounded=0;" parent="1" vertex="1">
          <mxGeometry x="725" y="300" width="100" height="30" as="geometry" />
        </mxCell>
        <mxCell id="eoJndW0XayTcd-Umclps-7" value="Reserve Seat Temporarily" style="ellipse;whiteSpace=wrap;html=1;aspect=fixed;" parent="1" vertex="1">
          <mxGeometry x="830" y="260" width="80" height="80" as="geometry" />
        </mxCell>
        <mxCell id="eoJndW0XayTcd-Umclps-8" value="" style="endArrow=classic;html=1;rounded=0;exitX=1;exitY=0.5;exitDx=0;exitDy=0;" parent="1" source="eoJndW0XayTcd-Umclps-7" edge="1">
          <mxGeometry width="50" height="50" relative="1" as="geometry">
            <mxPoint x="730" y="360" as="sourcePoint" />
            <mxPoint x="1030" y="300" as="targetPoint" />
          </mxGeometry>
        </mxCell>
        <mxCell id="eoJndW0XayTcd-Umclps-9" value="Pay the invoice" style="text;html=1;align=center;verticalAlign=middle;whiteSpace=wrap;rounded=0;" parent="1" vertex="1">
          <mxGeometry x="920" y="300" width="100" height="30" as="geometry" />
        </mxCell>
        <mxCell id="eoJndW0XayTcd-Umclps-10" value="Payment" style="ellipse;whiteSpace=wrap;html=1;aspect=fixed;" parent="1" vertex="1">
          <mxGeometry x="1030" y="260" width="80" height="80" as="geometry" />
        </mxCell>
        <mxCell id="eoJndW0XayTcd-Umclps-11" value="" style="endArrow=classic;html=1;rounded=0;exitX=0.5;exitY=0;exitDx=0;exitDy=0;" parent="1" source="eoJndW0XayTcd-Umclps-7" edge="1">
          <mxGeometry width="50" height="50" relative="1" as="geometry">
            <mxPoint x="730" y="360" as="sourcePoint" />
            <mxPoint x="870" y="210" as="targetPoint" />
          </mxGeometry>
        </mxCell>
        <mxCell id="eoJndW0XayTcd-Umclps-12" value="Not pay the invoice" style="text;html=1;align=center;verticalAlign=middle;whiteSpace=wrap;rounded=0;" parent="1" vertex="1">
          <mxGeometry x="760" y="220" width="110" height="30" as="geometry" />
        </mxCell>
        <mxCell id="eoJndW0XayTcd-Umclps-13" value="Abort process" style="ellipse;whiteSpace=wrap;html=1;aspect=fixed;" parent="1" vertex="1">
          <mxGeometry x="830" y="130" width="80" height="80" as="geometry" />
        </mxCell>
        <mxCell id="eoJndW0XayTcd-Umclps-14" value="Passenger Details" style="shape=partialRectangle;whiteSpace=wrap;html=1;left=0;right=0;fillColor=none;" parent="1" vertex="1">
          <mxGeometry x="310" y="460" width="120" height="60" as="geometry" />
        </mxCell>
        <mxCell id="eoJndW0XayTcd-Umclps-15" value="Flight Inventory" style="shape=partialRectangle;whiteSpace=wrap;html=1;left=0;right=0;fillColor=none;" parent="1" vertex="1">
          <mxGeometry x="630" y="460" width="120" height="60" as="geometry" />
        </mxCell>
        <mxCell id="eoJndW0XayTcd-Umclps-16" value="Reservations Data" style="shape=partialRectangle;whiteSpace=wrap;html=1;left=0;right=0;fillColor=none;" parent="1" vertex="1">
          <mxGeometry x="820" y="460" width="120" height="60" as="geometry" />
        </mxCell>
        <mxCell id="eoJndW0XayTcd-Umclps-17" value="Payments Data" style="shape=partialRectangle;whiteSpace=wrap;html=1;left=0;right=0;fillColor=none;" parent="1" vertex="1">
          <mxGeometry x="1010" y="460" width="120" height="60" as="geometry" />
        </mxCell>
        <mxCell id="eoJndW0XayTcd-Umclps-18" value="" style="endArrow=classic;html=1;rounded=0;exitX=0.5;exitY=0;exitDx=0;exitDy=0;entryX=0.5;entryY=1;entryDx=0;entryDy=0;" parent="1" source="eoJndW0XayTcd-Umclps-15" target="eoJndW0XayTcd-Umclps-4" edge="1">
          <mxGeometry width="50" height="50" relative="1" as="geometry">
            <mxPoint x="700" y="390" as="sourcePoint" />
            <mxPoint x="750" y="340" as="targetPoint" />
          </mxGeometry>
        </mxCell>
        <mxCell id="eoJndW0XayTcd-Umclps-20" value="" style="endArrow=classic;html=1;rounded=0;exitX=0.5;exitY=1;exitDx=0;exitDy=0;entryX=0.5;entryY=0;entryDx=0;entryDy=0;" parent="1" source="eoJndW0XayTcd-Umclps-10" target="eoJndW0XayTcd-Umclps-17" edge="1">
          <mxGeometry width="50" height="50" relative="1" as="geometry">
            <mxPoint x="700" y="390" as="sourcePoint" />
            <mxPoint x="750" y="340" as="targetPoint" />
          </mxGeometry>
        </mxCell>
        <mxCell id="eoJndW0XayTcd-Umclps-22" value="" style="endArrow=none;html=1;rounded=0;exitX=1;exitY=1;exitDx=0;exitDy=0;" parent="1" source="eoJndW0XayTcd-Umclps-10" edge="1">
          <mxGeometry width="50" height="50" relative="1" as="geometry">
            <mxPoint x="700" y="390" as="sourcePoint" />
            <mxPoint x="1140" y="328" as="targetPoint" />
          </mxGeometry>
        </mxCell>
        <mxCell id="eoJndW0XayTcd-Umclps-23" value="" style="endArrow=none;html=1;rounded=0;" parent="1" edge="1">
          <mxGeometry width="50" height="50" relative="1" as="geometry">
            <mxPoint x="1140" y="560" as="sourcePoint" />
            <mxPoint x="780" y="560" as="targetPoint" />
          </mxGeometry>
        </mxCell>
        <mxCell id="eoJndW0XayTcd-Umclps-24" value="" style="endArrow=none;html=1;rounded=0;" parent="1" edge="1">
          <mxGeometry width="50" height="50" relative="1" as="geometry">
            <mxPoint x="360" y="560" as="sourcePoint" />
            <mxPoint x="780" y="560" as="targetPoint" />
          </mxGeometry>
        </mxCell>
        <mxCell id="eoJndW0XayTcd-Umclps-25" value="" style="endArrow=classic;html=1;rounded=0;entryX=0.417;entryY=0.983;entryDx=0;entryDy=0;entryPerimeter=0;" parent="1" target="eoJndW0XayTcd-Umclps-14" edge="1">
          <mxGeometry width="50" height="50" relative="1" as="geometry">
            <mxPoint x="360" y="560" as="sourcePoint" />
            <mxPoint x="750" y="340" as="targetPoint" />
          </mxGeometry>
        </mxCell>
        <mxCell id="eoJndW0XayTcd-Umclps-26" value="" style="endArrow=none;html=1;rounded=0;" parent="1" edge="1">
          <mxGeometry width="50" height="50" relative="1" as="geometry">
            <mxPoint x="1140" y="560" as="sourcePoint" />
            <mxPoint x="1140" y="330" as="targetPoint" />
          </mxGeometry>
        </mxCell>
        <mxCell id="eoJndW0XayTcd-Umclps-27" value="" style="endArrow=classic;html=1;rounded=0;exitX=0.338;exitY=0.95;exitDx=0;exitDy=0;entryX=0.5;entryY=0;entryDx=0;entryDy=0;exitPerimeter=0;" parent="1" source="eoJndW0XayTcd-Umclps-10" target="eoJndW0XayTcd-Umclps-16" edge="1">
          <mxGeometry width="50" height="50" relative="1" as="geometry">
            <mxPoint x="700" y="390" as="sourcePoint" />
            <mxPoint x="750" y="340" as="targetPoint" />
          </mxGeometry>
        </mxCell>
        <mxCell id="eoJndW0XayTcd-Umclps-28" value="" style="endArrow=classic;html=1;rounded=0;exitX=0;exitY=1;exitDx=0;exitDy=0;entryX=0.925;entryY=0.033;entryDx=0;entryDy=0;entryPerimeter=0;" parent="1" source="eoJndW0XayTcd-Umclps-10" target="eoJndW0XayTcd-Umclps-15" edge="1">
          <mxGeometry width="50" height="50" relative="1" as="geometry">
            <mxPoint x="700" y="390" as="sourcePoint" />
            <mxPoint x="750" y="340" as="targetPoint" />
          </mxGeometry>
        </mxCell>
        <mxCell id="eoJndW0XayTcd-Umclps-29" value="Update seats availabilty" style="text;html=1;align=center;verticalAlign=middle;whiteSpace=wrap;rounded=0;rotation=-25;" parent="1" vertex="1">
          <mxGeometry x="830" y="370" width="130" height="30" as="geometry" />
        </mxCell>
        <mxCell id="eoJndW0XayTcd-Umclps-30" value="Update(add) the reservation details" style="text;html=1;align=center;verticalAlign=middle;whiteSpace=wrap;rounded=0;rotation=0;" parent="1" vertex="1">
          <mxGeometry x="675" y="535" width="195" height="30" as="geometry" />
        </mxCell>
        <mxCell id="eoJndW0XayTcd-Umclps-31" value="Add a new payment" style="text;html=1;align=center;verticalAlign=middle;whiteSpace=wrap;rounded=0;rotation=90;" parent="1" vertex="1">
          <mxGeometry x="1030" y="380" width="110" height="30" as="geometry" />
        </mxCell>
        <mxCell id="eoJndW0XayTcd-Umclps-32" value="Add a new reservation" style="text;html=1;align=center;verticalAlign=middle;whiteSpace=wrap;rounded=0;rotation=-35;" parent="1" vertex="1">
          <mxGeometry x="910" y="390" width="140" height="30" as="geometry" />
        </mxCell>
        <mxCell id="eoJndW0XayTcd-Umclps-33" value="" style="endArrow=none;html=1;rounded=0;exitX=0.25;exitY=1;exitDx=0;exitDy=0;" parent="1" source="eoJndW0XayTcd-Umclps-14" edge="1">
          <mxGeometry width="50" height="50" relative="1" as="geometry">
            <mxPoint x="720" y="380" as="sourcePoint" />
            <mxPoint x="340" y="600" as="targetPoint" />
          </mxGeometry>
        </mxCell>
        <mxCell id="eoJndW0XayTcd-Umclps-34" value="" style="endArrow=none;html=1;rounded=0;" parent="1" edge="1">
          <mxGeometry width="50" height="50" relative="1" as="geometry">
            <mxPoint x="340" y="600" as="sourcePoint" />
            <mxPoint x="1160" y="600" as="targetPoint" />
          </mxGeometry>
        </mxCell>
        <mxCell id="eoJndW0XayTcd-Umclps-35" value="" style="endArrow=none;html=1;rounded=0;" parent="1" edge="1">
          <mxGeometry width="50" height="50" relative="1" as="geometry">
            <mxPoint x="1160" y="600" as="sourcePoint" />
            <mxPoint x="1160" y="320" as="targetPoint" />
          </mxGeometry>
        </mxCell>
        <mxCell id="eoJndW0XayTcd-Umclps-38" value="" style="endArrow=classic;html=1;rounded=0;entryX=0.875;entryY=0.75;entryDx=0;entryDy=0;entryPerimeter=0;" parent="1" target="eoJndW0XayTcd-Umclps-10" edge="1">
          <mxGeometry width="50" height="50" relative="1" as="geometry">
            <mxPoint x="1160" y="320" as="sourcePoint" />
            <mxPoint x="770" y="330" as="targetPoint" />
          </mxGeometry>
        </mxCell>
        <mxCell id="eoJndW0XayTcd-Umclps-39" value="Bank card details" style="text;html=1;align=center;verticalAlign=middle;whiteSpace=wrap;rounded=0;rotation=0;" parent="1" vertex="1">
          <mxGeometry x="675" y="600" width="175" height="30" as="geometry" />
        </mxCell>
        <mxCell id="o3roMG5hUqk4sn4I3ocx-1" value="" style="endArrow=none;html=1;rounded=0;exitX=1;exitY=0.5;exitDx=0;exitDy=0;" edge="1" parent="1" source="eoJndW0XayTcd-Umclps-10">
          <mxGeometry width="50" height="50" relative="1" as="geometry">
            <mxPoint x="800" y="420" as="sourcePoint" />
            <mxPoint x="1180" y="300" as="targetPoint" />
          </mxGeometry>
        </mxCell>
        <mxCell id="o3roMG5hUqk4sn4I3ocx-2" value="Airline Payments Management" style="rounded=0;whiteSpace=wrap;html=1;" vertex="1" parent="1">
          <mxGeometry x="1180" y="270" width="120" height="60" as="geometry" />
        </mxCell>
      </root>
    </mxGraphModel>
  </diagram>
</mxfile>
